<?xml version="1.0" standalone="no"?>
<!DOCTYPE svg PUBLIC "-//W3C//DTD SVG 20010904//EN"
 "http://www.w3.org/TR/2001/REC-SVG-20010904/DTD/svg10.dtd">
<svg version="1.0" xmlns="http://www.w3.org/2000/svg"
 width="700.000000pt" height="700.000000pt" viewBox="0 0 700.000000 700.000000"
 preserveAspectRatio="xMidYMid meet">
<g transform="translate(0.000000,700.000000) scale(0.100000,-0.100000)"
fill="#000000" stroke="none">
<path d="M1600 5355 l0 -635 630 0 630 0 0 -630 0 -630 -630 0 -630 0 0 -610
0 -610 630 0 630 0 0 -615 0 -615 640 0 640 0 0 610 0 610 630 0 630 0 0 615
0 615 -630 0 -630 0 0 630 0 630 630 0 630 0 0 635 0 635 -1900 0 -1900 0 0
-635z m2530 -2505 l0 -610 -630 0 -630 0 0 610 0 610 630 0 630 0 0 -610z"/>
</g>
</svg>
