<?xml version="1.0" encoding="UTF-8" standalone="no"?>
<svg xmlns="http://www.w3.org/2000/svg" style="isolation:isolate" viewBox="0 0 100 100" width="100pt" height="100pt">
  <path
    d=" M 0 50 C 0 22.404 22.404 0 50 0 C 77.596 0 100 22.404 100 50 C 100 77.596 77.596 100 50 100 C 22.404 100 0 77.596 0 50 Z  M 8.333 50 C 8.333 27.003 27.003 8.333 50 8.333 C 72.997 8.333 91.667 27.003 91.667 50 C 91.667 72.997 72.997 91.667 50 91.667 C 27.003 91.667 8.333 72.997 8.333 50 Z  M 49 85 Q 34.346 84.903 22.16 70.765 L 36.722 56.651 L 46.492 66.418 L 77.757 35.156 Q 82.212 39.822 85 44 C 88.438 61.875 75.408 85 49 85 Z  M 29.908 51.831 C 23.435 51.831 18.18 46.58 18.18 40.109 C 18.18 33.637 23.435 28.383 29.908 28.383 C 36.378 28.383 41.628 33.637 41.628 40.109 C 41.628 46.58 36.379 51.831 29.908 51.831 Z "
    fill-rule="evenodd" fill="rgb(204,204,204)"/>
</svg>
