<?xml version="1.0" encoding="UTF-8" standalone="no"?>
<svg xmlns="http://www.w3.org/2000/svg" xmlns:xlink="http://www.w3.org/1999/xlink" viewBox="0 0 160 160">
  <mask id="mask0_5165_56076">
    <circle fill="#afb6bb" cx="80" cy="80" r="80"/>
    <circle fill="white" fill-opacity="0.2" cx="80" cy="80" r="80"/>
  </mask>
  <g mask="url(#mask0_5165_56076)">
    <circle fill="#ececec" cx="80" cy="80" r="80"/>
    <path fill="#0d6efd" d="M155.062 153.115C155.062 157.077 152.099 160.048 148.149 160.048H12.8505C8.90023 160.048 5.9375 157.077 5.9375 153.115C5.9375 153.115 5.9375 127.364 24.7015 118.45C36.5524 112.508 32.1083 117.46 46.4282 111.517C60.7481 105.575 64.2046 103.594 64.2046 103.594V89.7283C64.2046 89.7283 58.7729 85.7666 57.2915 72.396C53.835 73.3864 52.8474 68.4344 52.3537 65.4631C52.3537 62.4919 50.3785 53.0829 54.3288 53.5781C53.3412 47.1404 52.8474 41.1979 53.3412 38.2267C54.3288 27.3321 64.6984 16.4376 80.4996 15.4471C99.2636 16.4376 106.67 27.3321 107.658 38.2267C108.152 41.1979 107.164 47.1404 106.67 53.5781C110.621 52.5877 109.139 62.4919 108.646 65.4631C108.646 68.4344 107.164 73.3864 103.708 72.396C102.226 85.2714 96.7946 89.7283 96.7946 89.7283V103.594C96.7946 103.594 100.251 105.575 114.571 111.517C128.891 117.46 124.447 113.003 136.298 118.946C155.062 127.364 155.062 153.115 155.062 153.115Z"/>
  </g>
</svg>
