<?xml version="1.0" encoding="UTF-8" standalone="no"?>
<svg xmlns="http://www.w3.org/2000/svg" style="isolation:isolate" viewBox="0 0 136 108" width="136pt" height="108pt">
  <path
    d=" M 136 96.75 C 136 102.937 130.901 108 124.668 108 L 11.332 108 C 5.099 108 0 102.938 0 96.75 L 0 11.249 C 0 5.062 5.099 0 11.332 0 L 124.668 0 C 130.901 0 136 5.062 136 11.249 L 136 96.75 L 136 96.75 Z  M 11.332 9 C 10.129 9 9.067 10.057 9.067 11.248 L 9.067 96.749 C 9.067 97.944 10.13 98.997 11.332 98.997 L 124.668 98.997 C 125.867 98.997 126.936 97.944 126.936 96.749 L 126.936 11.248 C 126.936 10.057 125.867 9 124.668 9 L 11.332 9 L 11.332 9 Z  M 31.735 44.999 C 24.226 44.999 18.131 38.952 18.131 31.501 C 18.131 24.05 24.226 18 31.735 18 C 39.241 18 45.33 24.05 45.33 31.501 C 45.33 38.952 39.242 44.999 31.735 44.999 Z  M 117.865 90.001 L 18.131 90.001 L 18.131 76.498 L 40.799 54.002 L 52.132 65.248 L 88.398 29.253 L 117.865 58.503 L 117.865 90.001 L 117.865 90.001 Z "
    fill="rgb(204,204,204)"/>
</svg>
