<?xml version="1.0" encoding="UTF-8" standalone="no"?>
<svg xmlns="http://www.w3.org/2000/svg" xmlns:xlink="http://www.w3.org/1999/xlink" style="isolation:isolate" width="80" height="80" viewBox="0 0 80 80">
  <defs>
    <linearGradient id="_lgradient_0" x1="0.5" y1="0" x2="0.49999999999999983" y2="1" gradientTransform="matrix(80,0,0,80,0,0)" gradientUnits="userSpaceOnUse">
      <stop offset="0%" stop-opacity="1" style="stop-color:rgb(214,1,1)"/>
      <stop offset="100%" stop-opacity="1" style="stop-color:rgb(110,0,0)"/>
    </linearGradient>
  </defs>
  <circle cx="40" cy="40" r="40" fill="url(#_lgradient_0)"/>
  <path
    d=" M 50.388 27.14 C 51.044 26.505 52.087 26.505 52.743 27.14 L 52.743 27.14 C 53.431 27.806 53.431 28.908 52.743 29.574 L 29.61 51.968 C 28.954 52.603 27.912 52.603 27.256 51.968 L 27.256 51.968 C 26.569 51.303 26.569 50.201 27.256 49.536 L 50.388 27.14 L 50.388 27.14 Z "
    fill-rule="evenodd" fill="rgb(255,255,255)"/>
  <path
    d=" M 29.612 27.14 C 28.956 26.505 27.913 26.505 27.257 27.14 L 27.257 27.14 C 26.569 27.806 26.569 28.908 27.257 29.574 L 50.39 51.968 C 51.047 52.603 52.088 52.603 52.744 51.968 L 52.744 51.968 C 53.431 51.303 53.431 50.201 52.744 49.536 L 29.612 27.14 L 29.612 27.14 Z "
    fill-rule="evenodd" fill="rgb(255,255,255)"/>
</svg>
