<?xml version="1.0" encoding="UTF-8" standalone="no"?>
<svg xmlns="http://www.w3.org/2000/svg" xmlns:xlink="http://www.w3.org/1999/xlink" width="80" height="80" viewBox="0 0 80 80" fill="none">
  <circle cx="40" cy="40" r="40" fill="white"/>
  <path
    d="M54.5701 27.5735C53.0771 26.5608 51.0154 26.9321 49.949 28.3499L37.1878 45.6666L29.6519 38.5103C28.3722 37.2951 26.2394 37.2951 24.9598 38.5103C23.6801 39.7255 23.6801 41.7509 24.9598 42.9661L35.2683 52.7553C35.9081 53.3629 36.7612 53.6667 37.6144 53.6667C37.6144 53.6667 37.6144 53.6667 37.6499 53.6667C37.6499 53.6667 37.8987 53.6667 37.9698 53.6667C38.894 53.5992 39.7827 53.1266 40.387 52.3502L55.4232 31.9617C56.4541 30.5102 56.0631 28.5524 54.5701 27.5735Z"
    fill="#00AC5E"/>
</svg>
